<?xml version="1.0" encoding="UTF-8"?>
<svg id="Capa_1" xmlns="http://www.w3.org/2000/svg" version="1.1" viewBox="0 0 476 476">
  <!-- Generator: Adobe Illustrator 30.2.1, SVG Export Plug-In . SVG Version: 2.1.1 Build 1)  -->
  <defs>
    <style>
      .st0 {
        fill: #bfbfbe;
      }

      .st1 {
        fill: #f2b705;
      }

      .st2 {
        fill: #111827;
      }
    </style>
  </defs>
  <rect class="st2" y="0" width="476" height="476" rx="80" ry="80"/>
  <g>
    <path class="st1" d="M344.55,61.87l-2.18,2.55-38.63,4.2c-21.23,2.25-39.53,4.28-40.65,4.43-1.73.38-2.25-.08-3.9-2.93-2.4-3.98-4.58-5.63-7.43-5.63-1.88,0-29.33,11.7-39.6,16.95-4.2,2.1-5.55,4.8-4.95,9.83l.38,3.53-24.3,36.23c-20.7,30.83-24.3,36.6-24.3,38.85,0,3.53.9,5.25,5.33,9.75l3.6,3.75-4.8,8.63c-2.63,4.73-4.8,9-4.88,9.45,0,.38,1.58,1.5,3.6,2.48,5.78,2.85,15.38,9.38,21.38,14.55l5.55,4.88,29.55-51.45c16.2-28.35,30.15-52.58,30.98-53.93,3.3-5.18,1.65-4.88,67.2-12.23,33.15-3.68,60.75-6.75,61.28-6.75.75,0,.98,6.38.98,32.4-.08,28.8-.23,32.93-1.35,36.23-.75,2.03-4.8,8.85-9.08,15.15-4.28,6.23-7.5,11.7-7.2,12.15.23.45.98.83,1.65.83s13.73-6.98,29.03-15.45c30.38-16.88,42.9-25.35,52.5-35.63,12.15-12.83,14.18-28.8,6-45.68-3.68-7.5-12.6-16.5-20.33-20.48-9.3-4.8-14.63-5.78-32.63-5.78-11.85,0-15.75-.23-15.98-.98-.15-.45-.53-3.53-.75-6.75l-.53-5.78h-33.38l-2.18,2.63Z"/>
    <path class="st1" d="M21.75,310.8v106.95h41.63c25.28,0,44.63-.3,49.28-.83,41.48-4.5,76.88-32.1,90.83-70.88,4.13-11.55,5.4-19.73,5.4-35.18s-.83-21.3-5.25-34.65c-5.18-15.38-13.05-27.98-25.43-40.43-15.38-15.3-32.63-24.75-54.6-29.78-6.6-1.5-9.38-1.58-54.38-1.8l-47.48-.3v106.88ZM106.35,253.05c12.08,2.63,21.9,7.95,29.55,16.05,10.28,10.95,14.85,23.78,14.85,41.78,0,29.78-14.25,49.35-41.25,56.78-4.28,1.13-8.78,1.58-18.53,1.88l-12.98.45v-118.95l11.48.45c6.23.23,13.88.98,16.88,1.58Z"/>
    <path class="st1" d="M246.75,229.5v22.5h153.75v-45h-153.75v22.5Z"/>
    <path class="st1" d="M246.75,394.87v22.88h153.75v-45.75h-153.75v22.88Z"/>
  </g>
  <path class="st0" d="M246.75,310.84v22.5h104.25v-45h-104.25v22.5Z"/>
</svg>