<svg xmlns="http://www.w3.org/2000/svg" viewBox="0 0 1440.000000 810.000000" id="depsa-logo" preserveAspectRatio="xMidYMid meet">
  <!-- Amarillo: cambiar fill="#F5E000" al color deseado -->
  <g transform="translate(0.000000,810.000000) scale(0.075000,-0.075000)"
fill="#f2b705" stroke="none">
<path d="M6994 8375 l-29 -34 -515 -56 c-283 -30 -527 -57 -542 -59 -23 -5
-30 1 -52 39 -32 53 -61 75 -99 75 -25 0 -391 -156 -528 -226 -56 -28 -74 -64
-66 -131 l5 -47 -324 -483 c-276 -411 -324 -488 -324 -518 0 -47 12 -70 71
-130 l48 -50 -64 -115 c-35 -63 -64 -120 -65 -126 0 -5 21 -20 48 -33 77 -38
205 -125 285 -194 l74 -65 394 686 c216 378 402 701 413 719 44 69 22 65 896
163 442 49 810 90 817 90 10 0 13 -85 13 -432 -1 -384 -3 -439 -18 -483 -10
-27 -64 -118 -121 -202 -57 -83 -100 -156 -96 -162 3 -6 13 -11 22 -11 9 0
183 93 387 206 405 225 572 338 700 475 162 171 189 384 80 609 -49 100 -168
220 -271 273 -124 64 -195 77 -435 77 -158 0 -210 3 -213 13 -2 6 -7 47 -10
90 l-7 77 -222 0 -223 0 -29 -35z"/>
<path d="M2690 5056 l0 -1426 555 0 c337 0 595 4 657 11 553 60 1025 428 1211
945 55 154 72 263 72 469 0 212 -11 284 -70 462 -69 205 -174 373 -339 539
-205 204 -435 330 -728 397 -88 20 -125 21 -725 24 l-633 4 0 -1425z m1128
770 c161 -35 292 -106 394 -214 137 -146 198 -317 198 -557 0 -397 -190 -658
-550 -757 -57 -15 -117 -21 -247 -25 l-173 -6 0 793 0 793 153 -6 c83 -3 185
-13 225 -21z"/>
<path d="M5690 6140 l0 -300 1025 0 1025 0 0 300 0 300 -1025 0 -1025 0 0
-300z"/>
<path d="M5690 3935 l0 -305 1025 0 1025 0 0 305 0 305 -1025 0 -1025 0 0
-305z"/>
</g>
  <!-- Azul navy -->
  <g transform="translate(0.000000,810.000000) scale(0.075000,-0.075000)"
fill="silver" stroke="none">
<path d="M11904 6545 c-213 -33 -380 -114 -528 -254 -193 -185 -289 -452 -273
-756 13 -240 87 -401 237 -517 111 -85 244 -141 574 -238 183 -54 273 -96 334
-157 80 -80 91 -177 32 -280 -56 -98 -171 -148 -330 -146 -194 3 -381 80 -572
236 -32 26 -62 47 -67 47 -14 0 -324 -588 -316 -599 10 -17 169 -110 267 -156
221 -105 425 -153 673 -161 252 -9 446 27 633 116 330 157 488 396 522 793 24
284 -33 471 -195 633 -131 132 -249 192 -583 294 -222 69 -301 102 -356 150
-167 147 -43 361 217 377 141 9 314 -46 450 -143 26 -19 51 -34 56 -34 8 0
301 559 301 573 0 11 -213 102 -317 136 -268 88 -546 120 -759 86z"/>
<path d="M8302 5058 l3 -1423 373 -3 372 -2 0 475 0 475 289 0 c395 0 512 18
697 110 223 110 359 295 413 565 55 277 27 563 -73 763 -112 223 -296 358
-586 430 l-105 26 -693 3 -692 4 2 -1423z m1088 812 c115 -15 167 -37 220 -90
66 -65 85 -125 84 -260 0 -126 -22 -187 -89 -249 -70 -65 -143 -82 -367 -88
l-188 -6 0 352 0 351 133 0 c72 0 166 -5 207 -10z"/>
<path d="M14617 6468 c-27 -67 -1081 -2807 -1084 -2821 -5 -16 17 -17 392 -15
l398 3 120 328 120 327 457 0 456 0 56 -157 c32 -87 85 -236 119 -330 l61
-173 400 0 c377 0 400 1 393 18 -3 9 -242 643 -530 1407 -288 765 -527 1398
-530 1408 -7 16 -36 17 -415 17 -317 0 -409 -3 -413 -12z m533 -1230 c66 -190
120 -348 120 -352 0 -3 -111 -6 -246 -6 -140 0 -244 4 -242 9 2 5 57 164 123
355 65 190 120 344 122 342 2 -1 57 -158 123 -348z"/>
<path d="M5690 5055 l0 -305 790 0 790 0 0 305 0 305 -790 0 -790 0 0 -305z"/>
<path d="M16783 4210 c-117 -59 -185 -167 -185 -293 1 -159 91 -280 241 -324
154 -44 326 36 394 185 33 72 31 198 -5 274 -31 66 -91 128 -156 160 -36 18
-68 24 -137 26 -84 3 -94 1 -152 -28z m263 -58 c49 -25 110 -91 131 -141 9
-20 16 -63 16 -96 1 -150 -117 -269 -267 -268 -73 0 -120 18 -176 69 -81 73
-109 181 -75 285 22 65 92 139 156 162 59 22 161 17 215 -11z"/>
<path d="M16817 4093 c-16 -4 -17 -19 -15 -186 l3 -182 30 0 30 0 3 78 3 78
46 -3 c55 -4 77 -28 97 -104 10 -42 16 -49 39 -52 23 -3 27 0 27 21 0 36 -26
117 -46 138 -15 17 -15 20 10 49 47 56 28 127 -40 156 -31 13 -147 17 -187 7z
m163 -56 c19 -10 25 -20 25 -47 0 -42 -28 -60 -92 -60 l-43 0 0 60 0 60 43 0
c23 0 53 -6 67 -13z"/>
<path d="M9816 3239 c-3 -8 -44 -187 -91 -399 -47 -212 -89 -393 -91 -402 -5
-16 2 -18 59 -18 l65 0 20 88 c11 48 32 146 47 217 15 72 29 136 31 144 4 11
190 -359 227 -451 6 -16 14 -28 17 -28 3 0 57 107 120 238 63 130 117 241 122
247 4 5 8 -3 8 -19 0 -15 20 -117 45 -226 25 -109 45 -201 45 -204 0 -3 29 -6
65 -6 36 0 65 3 65 8 -1 19 -189 814 -194 819 -8 9 2 29 -144 -291 l-131 -290
-16 36 c-33 79 -247 534 -255 542 -6 6 -11 4 -14 -5z"/>
<path d="M14530 2837 l0 -417 60 0 60 0 0 268 0 267 118 -114 c64 -62 197
-190 295 -283 l177 -170 0 416 0 416 -65 0 -65 0 0 -261 0 -261 -258 248
c-142 137 -272 262 -290 278 l-32 30 0 -417z"/>
<path d="M10947 3230 c-20 -5 -60 -21 -88 -35 -255 -130 -308 -471 -105 -670
210 -205 563 -144 692 120 27 56 29 68 29 175 0 110 -2 119 -32 181 -41 83
-121 160 -209 201 -56 26 -80 31 -158 34 -50 2 -108 -1 -129 -6z m208 -137
c111 -37 192 -167 182 -290 -18 -241 -289 -356 -465 -198 -67 60 -97 128 -96
220 1 118 53 203 156 254 72 36 145 41 223 14z"/>
<path d="M12710 3221 c-244 -78 -357 -359 -240 -597 97 -198 366 -281 576
-179 l54 26 0 81 0 80 -22 -16 c-50 -36 -150 -78 -201 -83 -172 -18 -307 106
-307 282 0 123 44 207 137 262 36 21 63 27 122 31 91 5 138 -6 213 -51 l56
-34 6 36 c14 83 9 98 -36 125 -99 56 -249 72 -358 37z"/>
<path d="M13820 3217 c-300 -102 -386 -476 -159 -692 172 -164 426 -164 598 0
189 180 167 482 -47 635 -110 79 -263 101 -392 57z m255 -131 c53 -24 112 -83
141 -138 9 -18 19 -65 22 -104 8 -127 -41 -219 -149 -279 -47 -26 -64 -30
-129 -30 -82 0 -129 19 -192 74 -76 67 -109 204 -74 309 28 82 105 158 186
183 54 16 143 10 195 -15z"/>
<path d="M16129 3226 c-88 -31 -137 -92 -146 -181 -12 -113 37 -177 198 -260
111 -57 147 -87 155 -129 24 -131 -182 -175 -251 -53 l-21 36 -53 -24 c-49
-23 -53 -27 -46 -53 25 -105 148 -173 287 -158 164 17 262 158 218 316 -14 52
-82 112 -188 165 -117 60 -152 93 -152 145 0 96 145 123 204 39 l15 -22 55 29
c53 27 54 29 41 54 -21 40 -67 78 -114 95 -52 18 -152 19 -202 1z"/>
<path d="M8300 2820 l0 -400 143 0 c258 1 354 26 435 114 79 86 108 177 99
320 -3 50 -12 111 -21 136 -39 108 -140 196 -252 219 -32 6 -135 11 -231 11
l-173 0 0 -400z m411 248 c60 -33 96 -83 115 -158 34 -133 -8 -267 -100 -325
-46 -28 -56 -30 -168 -34 l-118 -3 0 277 0 278 115 -6 c95 -4 122 -9 156 -29z"/>
<path d="M9120 2820 l0 -400 225 0 225 0 0 65 0 65 -155 0 -155 0 0 120 0 120
155 0 155 0 0 65 0 65 -155 0 -155 0 0 90 0 90 155 0 155 0 0 60 0 60 -225 0
-225 0 0 -400z"/>
<path d="M11620 2820 l0 -400 215 0 215 0 0 65 0 65 -145 0 -145 0 0 335 0
335 -70 0 -70 0 0 -400z"/>
<path d="M12140 2820 l0 -400 70 0 70 0 0 400 0 400 -70 0 -70 0 0 -400z"/>
<path d="M13250 2820 l0 -400 70 0 70 0 0 400 0 400 -70 0 -70 0 0 -400z"/>
<path d="M15410 2820 l0 -400 230 0 231 0 -3 63 -3 62 -157 3 -158 3 0 119 0
119 158 3 157 3 0 60 0 60 -157 3 -158 3 0 89 0 89 158 3 157 3 3 58 3 57
-231 0 -230 0 0 -400z"/>
</g>
</svg>